# xmcd CD database file
#
# Track frame offsets:
#	150
#	15915
#	30171
#	44901
#	58937
#	75240
#	90856
#	103964
#	121316
#	136906
#	152067
#	165435
#	179160
#	194208
#	207568
#	219739
#	230941
#	244966
#	259381
#	272769
#	286487
#	301486
#
# Disc length: 4296 seconds
#
# Revision: 2
# Processed by: cddbd v1.5.2PL0 Copyright (c) Steve Scherf et al.
# Submitted via: CDex 1.51
#
DISCID=4c10c616
DTITLE=VARI - CARTOON STORY(SIGLE TV) CD 4
DYEAR=2004
DGENRE=Soundtrack
TTITLE0=Ma che magie Doremì! (2002)
TTITLE1=Maggie e l'incredibile birba (2003)
TTITLE2=Magica, magica Emi (1986)
TTITLE3=Memole dolce Memole (1985)
TTITLE4=Mewmew amiche vincenti (2004)
TTITLE5=Mi scappa la pipì papà (1979)
TTITLE6=Mila e Shiro 2 cuori nella pallavolo (1986)
TTITLE7=mostruosi marziani (2001)
TTITLE8=Nanà supergirl (1984)
TTITLE9=Occhi di gatto (1985)
TTITLE10=Picchiarello (2000)
TTITLE11=Pokemon (1999)
TTITLE12=Pokemon, the johto league champions (2001)
TTITLE13=Pollon pollon combina guai (1984)
TTITLE14=Pollyanna (1987)
TTITLE15=Pippi calzelunghe (1969)
TTITLE16=Portobello (1977)
TTITLE17=Power Rangers (1994)
TTITLE18=Rascal il mio amico orsetto (1984)
TTITLE19=Remì le sue avventure (1979)
TTITLE20=Rescue heroes squadra soccorso (2002)
TTITLE21=Rossana (2000)
EXTD=YEAR: 2004
EXTT0=
EXTT1=
EXTT2=
EXTT3=
EXTT4=
EXTT5=
EXTT6=
EXTT7=
EXTT8=
EXTT9=
EXTT10=
EXTT11=
EXTT12=
EXTT13=
EXTT14=
EXTT15=
EXTT16=
EXTT17=
EXTT18=
EXTT19=
EXTT20=
EXTT21=
PLAYORDER=
